/* XPM */
static char *result[] = {
/* columns rows colors chars-per-pixel */
"34 34 174 2 ",
"   c #020003",
".  c #060309",
"X  c #08060C",
"o  c #0B080D",
"O  c #070510",
"+  c #090712",
"@  c #0C0A12",
"#  c #0D0D1A",
"$  c #120F13",
"%  c #161616",
"&  c #14131B",
"*  c #11181C",
"=  c #1E1E1E",
"-  c #151723",
";  c #1B1C23",
":  c #12152B",
">  c #1A1D2A",
",  c #081C38",
"<  c #191D31",
"1  c #191E3C",
"2  c #10243F",
"3  c #1B203E",
"4  c #24242A",
"5  c #29272B",
"6  c gray16",
"7  c #252B3D",
"8  c #32363D",
"9  c #0B2A5F",
"0  c #0C305B",
"q  c #2D3442",
"w  c #2C334C",
"e  c #2B3A4B",
"r  c #383C42",
"t  c #31394B",
"y  c #243850",
"u  c #363F59",
"i  c #1F3A7F",
"p  c #273E68",
"a  c #213C7E",
"s  c #3B4455",
"d  c #36415B",
"f  c #39435C",
"g  c #384C58",
"h  c #0C407A",
"j  c #1D4370",
"k  c #354362",
"l  c #374567",
"z  c #294776",
"x  c #26457B",
"c  c #354D76",
"v  c #3A4C75",
"b  c #3E537C",
"n  c #444C56",
"m  c #424D63",
"M  c #455364",
"N  c #4B5865",
"B  c #45516A",
"V  c #495669",
"C  c #4E5B6D",
"Z  c #535E69",
"A  c #4C5971",
"S  c #465779",
"D  c #4B5D7D",
"F  c #515F78",
"G  c #54606A",
"H  c #5A656E",
"J  c #4F617E",
"K  c #5D6A76",
"L  c #54637C",
"P  c #48737D",
"I  c #606D78",
"U  c #1F3B81",
"Y  c #1B3B8A",
"T  c #0E369B",
"R  c #143A97",
"E  c #193D96",
"W  c #163C9A",
"Q  c #213E84",
"!  c #1B439C",
"~  c #194D9E",
"^  c #2A4886",
"/  c #354C80",
"(  c #295386",
")  c #3F5585",
"_  c #36508A",
"`  c #395289",
"'  c #264692",
"]  c #21469D",
"[  c #274A9A",
"{  c #225192",
"}  c #215898",
"|  c #38589B",
" . c #395A9D",
".. c #3D6697",
"X. c #0C42A7",
"o. c #1849A3",
"O. c #1156B5",
"+. c #115FBE",
"@. c #284DA0",
"#. c #1E60A8",
"$. c #1667BD",
"%. c #1668BF",
"&. c #1868BD",
"*. c #2562AB",
"=. c #3067A6",
"-. c #246CB9",
";. c #2C72BC",
":. c #3573B4",
">. c #3375BB",
",. c #405580",
"<. c #425A83",
"1. c #4B5E81",
"2. c #4E6384",
"3. c #48668C",
"4. c #546581",
"5. c #556886",
"6. c #5B6B81",
"7. c #5F728C",
"8. c #46659F",
"9. c #48679E",
"0. c #5F7392",
"q. c #627585",
"w. c #687987",
"e. c #62748C",
"r. c #697D93",
"t. c #4566A1",
"y. c #4869A8",
"u. c #407CB7",
"i. c #5A7BB3",
"p. c #0F66C3",
"a. c #1369C4",
"s. c #1469C7",
"d. c #1A6CC3",
"f. c #187AC7",
"g. c #2B75C1",
"h. c #6B8297",
"j. c #73879C",
"k. c #71889B",
"l. c #5784AE",
"z. c #5884AF",
"x. c #5483B0",
"c. c #5C88B2",
"v. c #728CA5",
"b. c #7991A5",
"n. c #7D96A9",
"m. c #6B94BA",
"M. c #7597B7",
"N. c #1786C9",
"B. c #1C87C9",
"V. c #1888C9",
"C. c #1495CB",
"Z. c #119FCD",
"A. c #3F9ECE",
"S. c #14A1CD",
"D. c #3EAACF",
"F. c #4283C6",
"G. c #5B95CC",
"H. c #579ACC",
"J. c #6888C0",
"K. c #4EA6CC",
"L. c #4FACCD",
"P. c #77A6CB",
"I. c #62B0CD",
"U. c #75B8D2",
"Y. c #869EB1",
"T. c #88A4B6",
"R. c #88AABB",
"E. c #99B4CF",
"W. c #9EB9CA",
"Q. c #94B4D2",
"!. c #A2BBCB",
"~. c #B8D1DE",
"^. c #A1C6E1",
"/. c #C0DBE7",
/* pixels */
"        . .         . .     .         .         .           .       ",
".     .     .     .     .       .       .   .       .   .       .   ",
"    .   .             .               .     .   .           .   .   ",
"X             .   .       .   .   .     .         . 5 . .   .       ",
"5 @           . .               .         .       . $               ",
"    .   .           .     .   .                         . . .       ",
"  .   .       . .   .   .       .                       $ 5       X ",
"      .   .                 .   . . q t Z H H H H H H 8     .     . ",
"    .   .           X & & > V C C A r.k.~./.^.^.^.^.^.W.r           ",
".             . - q M e.e.e.9.9.9.8.4.6.Y.!.G.f.V.N.N.A.R.8         ",
"  . O . . . + f K h.t.@.| 5.l z x x v S F e.!.G.C.S.S.S.D.R.q       ",
"  O 1 < 1 < 1 1.e.S a Q Q S D ( $.d.a.%.8.F 0.E.H.C.S.S.Z.D.R.8     ",
"  O 1 y 1 w 3 u L A c #.#.*.2./ { &.d.a.-.4.,.J.Q.B.Z.C.Z.Z.U.w..   ",
"X e q w 1 w 3 u 4.L ) o.O.*...D Y ~ O.*.=.3.<.! E.P.K.K.L.L.I.!.8   ",
"X 3 3 w 3 w 1 u L L ` T T ' L J E T T _ L L 1.' >.F.M.m.u.A.x.T.8   ",
"  X 3 e 3 w 1 u L L ` T T ! J L ` T T R 1.L L _ X.s.;.v.d.p.d.c.7.X ",
"g P 3 w 3 w 1 u L L D E T R D L ) R T R D L F <.! } ( l.x.d.p.u.h.X ",
"* b 3 w 1 w 1 u L L 7.8.| | e.e.7. .Y R l k f f k s 2 :.z.%.a.>.h.4 ",
"  O 3 y 3 w q u L 6.Y.n.v.b.b.b.b.k.x T ^ B A A v p p %.c.>.p.a.c.N ",
"  O : # : # : M e.j.T.b.b.b.b.b.b.J Y Y Y v A A f ^ $.%.>.z.&.a.g.M ",
"          .   o K i. .i.v.v.v.v.v.D i u u k s f q 9 p.a.&.z.>.a.d.z ",
"      .   .   . I y.E ! ! ! ! ! ' n c U Q ) L D m a +.p.a.>.c.f.s.h ",
".             V y. .8.8.8.t.8.t.<.> w f f B B B B l ( ( j z y 0 0 , ",
"      .     ; v.@.] W ] ] ] ] [ w X > f d f u f u d d s ; o         ",
"  .   .     G T.b.v.t.9.9.8.t.^ -   @ t f s f f d f f f w .       . ",
"      .     n r.q.7.h.h.q.q.w.s       < w w w w w w w w 7           ",
"  .         . . X   = %   X X     .   . .         .   . .   .       ",
"                                                      .             ",
"                                                                    ",
"  6                                                                 ",
"  .               =                                                 ",
"                  %                 6       % =                     ",
"                                    .         .                     ",
"                                                                    "
};
