/* XPM */
static char *result[] = {
/* columns rows colors chars-per-pixel */
"34 34 165 2 ",
"   c #020004",
".  c #050109",
"X  c #09060B",
"o  c #070809",
"O  c #0B090F",
"+  c #040712",
"@  c #040B17",
"#  c #0B0B12",
"$  c #0D0E1B",
"%  c #110E13",
"&  c #0B111E",
"*  c #14131B",
"=  c #18151A",
"-  c #1C1A1E",
";  c #0F1021",
":  c #1D1E25",
">  c #121F2B",
",  c #1A1F39",
"<  c #201E22",
"1  c #1A2035",
"2  c #23242B",
"3  c #232934",
"4  c #292B32",
"5  c #2D313A",
"6  c #1D2340",
"7  c #212643",
"8  c #222945",
"9  c #262E49",
"0  c #2A3044",
"q  c #2F364C",
"w  c #333A45",
"e  c #343A45",
"r  c #333C4E",
"t  c #223B51",
"y  c #293856",
"u  c #333C52",
"i  c #2C3E6A",
"p  c #2A3F74",
"a  c #213D7F",
"s  c #3C474F",
"d  c #37415B",
"f  c #39435C",
"g  c #384959",
"h  c #354463",
"j  c #3C4762",
"k  c #2D4173",
"l  c #29477D",
"z  c #364974",
"x  c #374C7A",
"c  c #375B7C",
"v  c #35647B",
"b  c #475361",
"n  c #44516D",
"m  c #4A576D",
"M  c #435477",
"N  c #4C5A73",
"B  c #515E75",
"V  c #57636A",
"C  c #54637C",
"Z  c #193A8A",
"A  c #0D359B",
"S  c #173B95",
"D  c #1B3F96",
"F  c #103798",
"G  c #143A99",
"H  c #223E80",
"J  c #18489C",
"K  c #10559E",
"L  c #29488A",
"P  c #344D86",
"I  c #2C568B",
"U  c #3C5384",
"Y  c #234594",
"T  c #20469D",
"R  c #2A4E9D",
"E  c #265992",
"W  c #36599F",
"Q  c #3C6581",
"!  c #0E44A7",
"~  c #1848A2",
"^  c #1858A5",
"/  c #145DAB",
"(  c #145CB9",
")  c #2248A2",
"_  c #2D52A1",
"`  c #3A5DA4",
"'  c #1B65B5",
"]  c #1667BC",
"[  c #1568BF",
"{  c #1969BD",
"}  c #2562A4",
"|  c #2E67A8",
" . c #3E60A0",
".. c #2570BF",
"X. c #3376BC",
"o. c #3778BA",
"O. c #3978B8",
"+. c #445984",
"@. c #4A5D81",
"#. c #4D6586",
"$. c #49668B",
"%. c #506380",
"&. c #5C6D83",
"*. c #556A8A",
"=. c #566A8C",
"-. c #4C7B8F",
";. c #5E7084",
":. c #436692",
">. c #44639C",
",. c #546B91",
"<. c #516D9B",
"1. c #45709A",
"2. c #5F7494",
"3. c #617389",
"4. c #667A8C",
"5. c #68788E",
"6. c #617897",
"7. c #687D97",
"8. c #496AA2",
"9. c #4375A8",
"0. c #507CA7",
"q. c #5B78A2",
"w. c #1469C4",
"e. c #50808F",
"r. c #4C889A",
"t. c #65829C",
"y. c #6F889D",
"u. c #73899A",
"i. c #4E81B4",
"p. c #5A86B1",
"a. c #6682A5",
"s. c #658AAE",
"d. c #7690A5",
"f. c #7992A5",
"g. c #7D96AB",
"h. c #7A9FB1",
"j. c #7CA0B2",
"k. c #1B93CA",
"l. c #119DCC",
"z. c #2F88CC",
"x. c #308ECD",
"c. c #3A92CA",
"v. c #16A1CD",
"b. c #18A2CD",
"n. c #38A9CF",
"m. c #4195CB",
"M. c #449CD1",
"N. c #6C8BC1",
"B. c #619AD0",
"V. c #5FA4CB",
"C. c #6EA1C7",
"Z. c #72ABC9",
"A. c #78A8CF",
"S. c #68B3C3",
"D. c #6AB8C7",
"F. c #72B6D0",
"G. c #8196A6",
"H. c #829EAF",
"J. c #95ABBB",
"K. c #82A9CD",
"L. c #94B0C7",
"P. c #90B0D1",
"I. c #A4BECF",
"U. c #A5BFD1",
"Y. c #ACC5D2",
/* pixels */
"    .           .       .   .     .         . .         . .     .   ",
"% X       .   .     .   .           .   .       .     .       .     ",
"= O               .               .   < X                     . .   ",
"        .   .       .     .   .       X   .   .   . . . . .         ",
".         .       .   . .         .       .       .   - %   .   .   ",
"    . .     .                       .         .                     ",
"          .       .               .               .   = %   .       ",
"  . .         .       # = %                           O X   .       ",
"          .   .       # = %       . $ : < : : : 2 =       .   .     ",
"  .   .   .           . o O 5 w w b 3.J.Y.I.I.I.U.J.5   .   .       ",
"            .     - 3 m C C ,.<.<.,.&.G.Y.B.z.x.x.M.j.4             ",
"  .   . . X . O s C 6.W _ =.z L L l U %.5.L.m.l.l.v.n.h.4           ",
".   & t 1 1 , , m &.x a a c B I ' ] [ | C 2.P.c.l.v.v.n.H.<         ",
"  # r.e.7 8 9 6 u C N I ( ' :.P J { w.{ :.U N.A.k.v.b.b.F.V         ",
"  t F.v 8 8 9 7 h %.C Y ~ _ $.+.S ! J :.#.+._ K.C.Z.V.V.Z.f.o       ",
"X r.S.q 8 7 9 1 d C %.D F G @.B J A S %.C C Y ' ..s.X.w.o.y.4       ",
"  c D.g 8 7 9 6 f C C L A G @.C P A A U B %.P ^ _ 0.i.w.w.p.s       ",
"  > D.-.7 8 9 7 d %.C =.R R =.;.#.Y F k j b j k 9 E s.{ w.i.b o     ",
"    v Q 7 7 0 , b B 7.H.d.d.f.f.d.*.S Z M m m k i K i.O.w...t.*     ",
".   + ; $ ; $ ; f 5.g.g.f.f.f.f.u.x Z H x m n y / [ ..i.{ w.9.=     ",
"2               . ;.` _ q.q.q.q.6.x p i h b n 3 K w.w.i.o.w.' &     ",
"o         .     2 7.8.) T T T T p w k p M B B n J ] / } 1./ K @     ",
"  .         . X =.) J `  . . .>.r $ u f h f j f h h 1 + # @ @     - ",
"              e H.a.8.R _ R _ a *   3 h u h u j d d 0 o           # ",
"  .           e u.4.4.4.4.4.4.r     % q q q q q q q 0 .             ",
"              X O o O O X O X o       o . . . o . . o       .       ",
"                                                                    ",
"                                                                    ",
"                                                                    ",
"                                                                  . ",
"                                                                  . ",
"                          o                             . . . . . . ",
"        . .             O -       . . . .           . . . . . . .   ",
"      . . . . .           . . . . . . . . . .   .     . . .   . . . "
};
