/* XPM */
static char *result[] = {
/* columns rows colors chars-per-pixel */
"34 34 174 2 ",
"   c #020004",
".  c #040008",
"X  c #0A060C",
"o  c #070A0B",
"O  c #0C0A13",
"+  c #0F0F1D",
"@  c #110E14",
"#  c #121217",
"$  c #14141C",
"%  c #19161C",
"&  c #16191C",
"*  c #1C1B1D",
"=  c #060F23",
"-  c #0C1322",
";  c #131424",
":  c #12142B",
">  c #1A1928",
",  c #181D33",
"<  c #12232D",
"1  c #1C233F",
"2  c #182E3E",
"3  c #212223",
"4  c #272B34",
"5  c #2C2C35",
"6  c #262C3F",
"7  c #2B313B",
"8  c #35373B",
"9  c #09274F",
"0  c #1E2441",
"q  c #1C2943",
"w  c #162F50",
"e  c #252B47",
"r  c #272E4A",
"t  c #20304D",
"y  c #28304C",
"u  c #223D4F",
"i  c #353B43",
"p  c #32394C",
"a  c #2A3951",
"s  c #2B3959",
"d  c #343D54",
"f  c #313E5A",
"g  c #2F3F66",
"h  c #283F75",
"j  c #3A4146",
"k  c #2D475A",
"l  c #3C4654",
"z  c #37415A",
"x  c #3A445D",
"c  c #1B4A7E",
"v  c #344364",
"b  c #3E4A63",
"n  c #354969",
"m  c #2D4373",
"M  c #2B467B",
"N  c #324776",
"B  c #354B7B",
"V  c #2F5F77",
"C  c #3E537F",
"Z  c #3F6870",
"A  c #32637B",
"S  c #41484C",
"D  c #45505E",
"F  c #404C65",
"G  c #424F6C",
"H  c #4B5560",
"J  c #46526C",
"K  c #4B596C",
"L  c #4C5A72",
"P  c #40567C",
"I  c #505F71",
"U  c #505F78",
"Y  c #556374",
"T  c #54647D",
"R  c #15388E",
"E  c #1B3A89",
"W  c #0D359B",
"Q  c #173B94",
"!  c #153B99",
"~  c #203D83",
"^  c #0F408B",
"/  c #154C8A",
"(  c #1D4494",
")  c #1D439D",
"_  c #1D5599",
"`  c #284788",
"'  c #364E85",
"]  c #2A568D",
"[  c #385289",
"{  c #204395",
"}  c #254898",
"|  c #24499D",
" . c #245A97",
".. c #3C5C9E",
"X. c #0F48AA",
"o. c #154BA6",
"O. c #1B5FAB",
"+. c #175AB6",
"@. c #2656A0",
"#. c #3659A3",
"$. c #3A5CA0",
"%. c #1C65B3",
"&. c #1565BB",
"*. c #1668BF",
"=. c #2D67A8",
"-. c #226BB7",
";. c #2B72BC",
":. c #3778BC",
">. c #3D7BB9",
",. c #425682",
"<. c #4C5E81",
"1. c #46668E",
"2. c #49648A",
"3. c #5B6C83",
"4. c #576B89",
"5. c #5F7184",
"6. c #486497",
"7. c #566F96",
"8. c #5E7494",
"9. c #55709C",
"0. c #66778E",
"q. c #677E99",
"w. c #4364A0",
"e. c #4676A8",
"r. c #5679A4",
"t. c #467EB5",
"y. c #427CB9",
"u. c #1369C3",
"i. c #1B6CC2",
"p. c #2873C2",
"a. c #6F8197",
"s. c #6C8399",
"d. c #768996",
"f. c #738A9C",
"g. c #5683AF",
"h. c #5D87AE",
"j. c #4B94B9",
"k. c #569FBC",
"l. c #6581A3",
"z. c #658BAF",
"x. c #758EA4",
"c. c #788FA1",
"v. c #609EA3",
"b. c #7992A5",
"n. c #7993AB",
"m. c #6282BC",
"M. c #60ABBE",
"N. c #7CABBF",
"B. c #6EB8BE",
"V. c #1794CB",
"C. c #129DCD",
"Z. c #368ACD",
"A. c #3891CF",
"S. c #14A1CD",
"D. c #2BA6CF",
"F. c #4796CB",
"G. c #4097D1",
"H. c #57A5C7",
"J. c #5FA7CB",
"K. c #58B2D1",
"L. c #6BA7C9",
"P. c #6CBBCA",
"I. c #6CA1D2",
"U. c #66BBD7",
"Y. c #6FC3D5",
"T. c #8195A8",
"R. c #829AAE",
"E. c #8BACCE",
"W. c #95B1C5",
"Q. c #9DB4C2",
"!. c #84ADD1",
"~. c #A3BBCB",
"^. c #ABC2CD",
"/. c #ABC3D2",
/* pixels */
"                  .     .     X *                 .   .     .       ",
"X @       .   .   .   . .     X @   .   .   .         . .   .       ",
"X %       X X         .   .   .                 . .           .     ",
"          @ %   .                 .     .     .     .   . .         ",
"                                  .   .                     .       ",
"            .                                     .     .   .       ",
"                                        .       .         .   .     ",
"                                                                    ",
"      o                               3 O & & & 3 8 & &             ",
"      * o                     o 4 7 7 D 5.R.^.~.~.~.~.Q.S           ",
"                      # 3 L I U 7.9.9.7.3.T./.I.Z.A.A.G.N.j         ",
"              .   o l 5.8.$...4.N M ` N C T 0.W.F.V.S.S.D.N.j       ",
"        < 2 , , , 1 T 5.B c ~ P L ] &.&.*.=.T 0.E.F.C.S.C.D.N.8     ",
"    o A M.v r 0 y 1 F T J  .O.-.1.' _ *.u.*.1.,.m.!.V.S.S.S.K.d.O   ",
"    V U.v.2 r 0 y 1 b T U { X.@.2.,.^ o.o.6.2.<.| E.L.L.J.J.L.W.4   ",
"  < j.H.k ; y 0 y 1 b T <.! W ! 2.<.( W ! <.T Y } +.p.z.y.p.p.z.l . ",
"O q H.Y.Z : y 0 y 1 F T T Q W ! U T ` W W [ 3.U [ o.O.e.h.i.u.t.5.X ",
"#   u P.B.a r 0 y 1 F T Y 6.| | 4.3.2.{ W h F F F m a c z.;.u.:.5.O ",
"  .   u k.k e 0 r e J T a.R.x.x.x.x.b.4.R E G J J n s / >.y.u.i.h.i ",
".   . X - : + : + : L 0.R.n.b.b.b.b.c.B E ~ B K L f | u.i.g.-.u.:.p ",
". @ 5 @   . . .   . $ q.#.w.l.l.q.l.q.B h g g F b 6 R u.u.>.t.u.i.w ",
". $ 8 % . . . . . . 5 l.$.) ) ) ! o.h d m h P U U J ( &.&.%.r.%.&.9 ",
". . @   . . . . . $ 9.| | $.w.w.w.9.f ; d f F F x b v n t = - - = O ",
". . . . . . . .   H n.r.$.| | | | ~ ; . 5 x d x z z z x a O   . .   ",
". . . . . . . .   Y b.f.s.s.s.s.s.f .   + d d d a z d d d +   . . . ",
". . . . . . . .   + $ $ $ $ $ $ $ O . . X O O O O O O O O X . . . . ",
". . # >   . . . . .   .   .   .   . . . . . .       .   . . . . . . ",
". . . X . . . . . . . . . . . . . . . . . . . . > X . . . . . . . . ",
".   . . . . . . . . . . .   . . . . . . . . . . O . . . . . . . . . ",
". . . . . . . . . . . . . . . . . . . . . . . .   . . . . . . . . . ",
". . . . . . . . . . . . . . . . . . . . . . . . . . . . . . . . . . ",
". . . . . . . . . . . . . . . . . . . . . . . . . . . . . . . . . . ",
". . . . . . . . . . . . . . . . . . . . . . . . . . . . . . . . . . ",
". . . . . .   . . . . . . . . . . . . . . . . . . . . . .   . . . . "
};
