/* XPM */
static char *result[] = {
/* columns rows colors chars-per-pixel */
"34 34 96 2 ",
"   c #030005",
".  c #040008",
"X  c #08050B",
"o  c #070A0E",
"O  c #0B0C0B",
"+  c #0D110B",
"@  c #11160D",
"#  c #151C0E",
"$  c #0D0D11",
"%  c #0E1314",
"&  c #0D1419",
"*  c #0F1A1E",
"=  c #131215",
"-  c #141319",
";  c #121B1B",
":  c #18230F",
">  c #1A2312",
",  c #1D2A11",
"<  c #212F14",
"1  c #243315",
"2  c #273718",
"3  c #0F1A20",
"4  c #111E22",
"5  c #1C1920",
"6  c #211D24",
"7  c #132224",
"8  c #182921",
"9  c #16262A",
"0  c #182D2F",
"q  c #1E352D",
"w  c #182E30",
"e  c #1A3335",
"r  c #1D3B3D",
"t  c #263C24",
"y  c #203E3E",
"u  c #2D411B",
"i  c #31461C",
"p  c #354D1E",
"a  c #39531F",
"s  c #28402B",
"d  c #2F4A2B",
"f  c #344026",
"g  c #334E28",
"h  c #355124",
"j  c #3A5320",
"k  c #244034",
"l  c #22423F",
"z  c #345531",
"x  c #365C3E",
"c  c #3A623F",
"v  c #3E683F",
"b  c #446425",
"n  c #486B27",
"m  c #4A6C28",
"M  c #537B2B",
"N  c #426835",
"B  c #4E6E36",
"V  c #497133",
"C  c #46713B",
"Z  c #48733A",
"A  c #001E40",
"S  c #052540",
"D  c #082740",
"F  c #0C2C40",
"G  c #0F3041",
"H  c #133340",
"J  c #183740",
"K  c #1D3D40",
"L  c #203F40",
"P  c #204140",
"I  c #294D41",
"U  c #325940",
"Y  c #3A6240",
"T  c #59842E",
"R  c #5E8B2F",
"E  c #5C8A34",
"W  c #54853F",
"Q  c #5E913D",
"!  c #649533",
"~  c #679934",
"^  c #699C36",
"/  c #649839",
"(  c #6CA137",
")  c #6EA438",
"_  c #72AA3A",
"`  c #78B53C",
"'  c #7CBA3E",
"]  c #558741",
"[  c #5B8F40",
"{  c #5C9041",
"}  c #619741",
"|  c #69A141",
" . c #7CBB40",
".. c #7FC042",
"X. c #83C341",
"o. c #86C943",
/* pixels */
"                                                          X         ",
"                                                          ; O       ",
"                                                          = .       ",
"                                  O O O O                           ",
"                                < ! ~ ~ M O                         ",
"                                u `  .' Q +                         ",
"              O % : , :     o 7 k v v v c > o .   O , , @           ",
"              - > R _ T + o e P y K y K r y e o   < ( _ a           ",
"                # ( ..Q q e r K K P P K K K K w 8 z ..o.b           ",
"                @ ^ Q l P K S S S G P e S S D K P c ' ..b           ",
".               O h x K J G G G G G G G G G G H J I C B f O         ",
".       . . .   . 3 r H H K P P K G D G K P P H H H r 9 %           ",
"  . . .   . X . X e G w J P P P H H P G S P P P P K P K *       .   ",
". . . .   X 6 $ X e G D P P P P J H P G S P P P P P P P 7 .   . .   ",
"6 . . . . X $ = 7 r F D J P P P H H P G S K K P P P P P 0 % O . . . ",
"5 X . . . 2 T N P P H D J J G G F H J G S e G J K K P y l V M 2 . . ",
"  . . . . j o.{ P P P H D D J K K F S G K K J D S F P P P | ' a   . ",
". . . . . p o.[ P P P J S S K P P G A e P P K S A D K P P | ' p . . ",
". . . . . j X.[ P P K G D G H J J F D G J J H D D G P P P / ' p . . ",
". . . . . > j d y P G D K K H H F H P G S H H K P P P P l g h :   . ",
". . . . . . . X & r e S K P P P J H P F D K P P P P l P 9 X . . . . ",
". . .   . . .   o e F S K P P P J H P G D P P P r P P r 4 . . . . . ",
". . . . . . . . . 3 K H J P P P K G D G J P P P H G r 7 o . . . . . ",
". . . . . . . . . & P K G H K K P F S F P P K H G H r & . . . . . . ",
". . . . . . . . + V v L J H e S D H H H F F F H K U Q E i   . .   . ",
". . . . . . . . @ ( } Y P r G D F J P H F D G K K Y ' o.b X   . . . ",
".   . . . . .   @ ) o.^ 8 7 r P P P P P K P r 7 * t E ` n . . . . . ",
". . . . . . . . + m E j O o 9 r P P K P y r 7 X   + 1 b i X . . . . ",
". . . . . . . . . O + o . . . & s W ] ] Z ; X . . .   o o . . . . . ",
"  . . . . . . . . . . . . . . . u ' ' X.^ O . . . .   .       . . . ",
". . . . . . . . . . . . . .   . > n m n j O . . . . . . . . . . . . ",
". . . . . . .   . . . . . . . . . .       . . . . . . . . . . . . . ",
". . . . . .   . . . . . . . . . . . . . . . .   . . . . . . . .   . ",
". . . . . . . . . . . . . . .   . . . . . . . . . . . . . . . . . . "
};
