/* XPM */
static char *result[] = {
/* columns rows colors chars-per-pixel */
"34 34 135 2 ",
"   c #020003",
".  c #0A0602",
"X  c #0E0D02",
"o  c #050309",
"O  c #08060A",
"+  c #0C0A0C",
"@  c #1D0604",
"#  c #120F02",
"$  c #120F0F",
"%  c #14120C",
"&  c #070614",
"*  c #0A0712",
"=  c #0C0913",
"-  c #0B081B",
";  c #110F12",
":  c #141215",
">  c #191713",
",  c #1D1B16",
"<  c #16141B",
"1  c #19171A",
"2  c #1D1B1D",
"3  c #290E0A",
"4  c #3B120C",
"5  c #201F1E",
"6  c #1F1D20",
"7  c #211F22",
"8  c #232224",
"9  c #282627",
"0  c #2E2D25",
"q  c #282729",
"w  c #2C2B2C",
"e  c #33332F",
"r  c #2C2B33",
"t  c #2E2D3F",
"y  c #302F30",
"u  c #353434",
"i  c #363538",
"p  c #383738",
"a  c #3B3A3B",
"s  c #41150F",
"d  c #4A130E",
"f  c #4B1E0C",
"g  c #4E1810",
"h  c #5F1D16",
"j  c #6C2016",
"k  c #7E231A",
"l  c #70311B",
"z  c #7A341D",
"x  c #4F2C21",
"c  c #57342C",
"v  c #4B3C35",
"b  c #513D34",
"n  c #553E3D",
"m  c #673421",
"M  c #663A2F",
"N  c #78382D",
"B  c #2F2E40",
"V  c #302F41",
"C  c #3E3E47",
"Z  c #363548",
"A  c #3E3E4B",
"S  c #373871",
"D  c #4D3E42",
"F  c #3C4041",
"G  c #3B444D",
"H  c #414144",
"J  c #4B4B45",
"K  c #43434C",
"L  c #4C4348",
"P  c #564143",
"I  c #50464F",
"U  c #444455",
"Y  c #484851",
"T  c #46465B",
"R  c #49475B",
"E  c #45485E",
"W  c #49495E",
"Q  c #555556",
"!  c #4A4A61",
"~  c #454668",
"^  c #4B4C6C",
"/  c #474F72",
"(  c #484E70",
")  c #4E4F7A",
"_  c #4D507A",
"`  c #515270",
"'  c #56577A",
"]  c #8F271E",
"[  c #842E1C",
"{  c #892B1A",
"}  c #942A1B",
"|  c #992F20",
" . c #903526",
".. c #A22F21",
"X. c #3F3E88",
"o. c #43438D",
"O. c #4D578E",
"+. c #525285",
"@. c #54568D",
"#. c #58598E",
"$. c #454593",
"%. c #484890",
"&. c #49499A",
"*. c #575794",
"=. c #5A5B94",
"-. c #525399",
";. c #575B9A",
":. c #5A5B9D",
">. c #4F50A2",
",. c #565DA7",
"<. c #5D5FA4",
"1. c #565DA8",
"2. c #595AA9",
"3. c #5B5FB1",
"4. c #5E60A6",
"5. c #5F61AA",
"6. c #5D63BC",
"7. c #6263AA",
"8. c #6163B2",
"9. c #6264BA",
"0. c #5E67CA",
"q. c #6565C4",
"w. c #6667CF",
"e. c #6368CF",
"r. c #6569D2",
"t. c #696AD3",
"y. c #676ADB",
"u. c #686ADB",
"i. c #6B6EE4",
"p. c #6D6EEA",
"a. c #6E70E7",
"s. c #6E70EE",
"d. c #6F70F1",
"f. c #7173F2",
"g. c #7474FA",
/* pixels */
"                  + +         > +                                   ",
"                  > >       u 8 e ,                                 ",
"                        % e 5.& S ' J .                             ",
"                      8 u < a.* X.>.X F .                           ",
"                    5 u   o u.r -.$.  > a .           + 5           ",
"                  % u     = y.Y 5.$.    : u           o +           ",
"    o     o       u =     O u.H 4.%.  o   w 8                       ",
"                u 8       = u.K 5.o.  o   o p 5   o                 ",
"      o       w 8         * y.K 4.$.  o       u %           o   o   ",
"o           > u       o   & u.K <.$.  o       : u       o           ",
"o   o     ; a +   o   o   o y.H 4.o.  o o   o   8 u     o   o     . ",
"      o   u =           u ~ t.q.u.2.A 5       o   q 1         o   r ",
"        : r     o   O u 5.f.u.r.e.a.i.` ,         + u               ",
"  o   + a :   o o   q 5.p.5.( c D O.w.i.` +   o o   w q   o   o   o ",
"      1 >         . ! i.1.b [ @ g z E t.9.0           q o     o o   ",
"o     i Z t t i t i q.i.L [ k   4 ] l O.g._ r V t t B A 1           ",
"      U =.#.#.#.#.#.*./ N } s   . j | P O.@.#.#.#.#.#.#.9       o   ",
"o     C ! E W W W W T F  .} 4     j ..M G T W W T ! W W 8           ",
"  o   U @.+.+.+.+._ t.q.n } h   3 k [ / p.<._ +.+.+.+.+.2   o     o ",
"      2 #         # +.i._ m }   d } v 6.t.C           0 8   o       ",
"  o   : a o   o     i t.i.) n f x I 1.d.=.> o   o   1 a >         O ",
"o       8 8         > W r.d.6.@.;.y.p.<.u         o p O       o     ",
"          u       o   % W 7.t.s.a.q.:.u       o   6 8   o           ",
"o   o     8 r     o     + > y.^ 8.%.. +     o   + a o         o r   ",
"        o   w i 6         & u.H 4.$.  o       O a :     7 ;     o   ",
"  o o         a 1     o   * y.U 4.$.    o     q 2   o   + O       o ",
"              : a O       * u.K 4.o.  o     2 u             o       ",
"  o o           > a o     O u.K 4.$.  o   1 Q +       o     o   o   ",
"      o o   o     2 q     & u.K 4.$.    o u : o             o       ",
"  o           O +   u 8   = u.H <.$.  o u 2     o o   o o       o   ",
"o         o   ; 8     p 5 o a.= o.&.  a 2   o               o   o   ",
"o   o             o   o w i t.- X.;.0 2   o     o   o       o       ",
"  o     o       o   o     $ R < Z i         o           * O         ",
"      o     o         o     : q 5       o         o     8 :       o "
};
