/* XPM */
static char *result[] = {
/* columns rows colors chars-per-pixel */
"34 34 170 2 ",
"   c #020003",
".  c #0C0B05",
"X  c #040109",
"o  c #09050B",
"O  c #0B090D",
"+  c #150605",
"@  c #100D07",
"#  c #1B0806",
"$  c #14010E",
"%  c #17140E",
"&  c #18140C",
"*  c #0E0A11",
"=  c #08061F",
"-  c #120F14",
";  c #151315",
":  c #151319",
">  c #19161D",
",  c #1C1C1C",
"<  c #1F1D17",
"1  c #201C1C",
"2  c #23211B",
"3  c #0E0B26",
"4  c #1E1C20",
"5  c #191630",
"6  c #201F22",
"7  c #341E26",
"8  c #232225",
"9  c #282722",
"0  c #272429",
"q  c #292729",
"w  c #2B2A2C",
"e  c #30302F",
"r  c #2D2C33",
"t  c #302F33",
"y  c #343334",
"u  c #383737",
"i  c #383739",
"p  c #3C3B3D",
"a  c #37363B",
"s  c #46150F",
"d  c #541911",
"f  c #690C1A",
"g  c #7E0E13",
"h  c #780D17",
"j  c #631E15",
"k  c #4A0B29",
"l  c #540C24",
"z  c #590A27",
"x  c #540B2A",
"c  c #5F092C",
"v  c #50122A",
"b  c #590E31",
"n  c #561132",
"m  c #5D1234",
"M  c #680B22",
"N  c #64122C",
"B  c #7A1E2B",
"V  c #741E2E",
"C  c #620C31",
"Z  c #760D36",
"A  c #7B0D33",
"S  c #671731",
"D  c #691832",
"F  c #6B133A",
"G  c #45212D",
"H  c #5C2C2E",
"J  c #4D2133",
"K  c #512331",
"L  c #423237",
"P  c #3F413D",
"I  c #3C3C45",
"U  c #38374E",
"Y  c #3B3E4F",
"T  c #3B3849",
"R  c #292857",
"E  c #2C2B5E",
"W  c #3E3E52",
"Q  c #2D2B60",
"!  c #302E62",
"~  c #313062",
"^  c #641341",
"/  c #403143",
"(  c #4F3D4F",
")  c #4A3C59",
"_  c #503F5D",
"`  c #553A53",
"'  c #454445",
"]  c #414149",
"[  c #474759",
"{  c #484658",
"}  c #404958",
"|  c #4A4B5C",
" . c #5A405B",
".. c #6B435D",
"X. c #63405C",
"o. c #4E4267",
"O. c #4C4D60",
"+. c #4F446A",
"@. c #474A6F",
"#. c #4A4D69",
"$. c #544264",
"%. c #53436B",
"&. c #5C4365",
"*. c #525366",
"=. c #464C75",
"-. c #494C75",
";. c #434C79",
":. c #494D7A",
">. c #584571",
",. c #57587E",
"<. c #56577D",
"1. c #604362",
"2. c #684461",
"3. c #850D0D",
"4. c #950E05",
"5. c #870D14",
"6. c #981214",
"7. c #AA0E00",
"8. c #BD0F01",
"9. c #A00E15",
"0. c #AB151E",
"q. c #8D2B1E",
"w. c #9E311F",
"e. c #A2321E",
"r. c #890E29",
"t. c #801B2A",
"y. c #870F36",
"u. c #8E103B",
"i. c #951537",
"p. c #9A1528",
"a. c #A11639",
"s. c #8B2723",
"d. c #862628",
"f. c #802829",
"g. c #972724",
"h. c #9A2926",
"j. c #B33722",
"k. c #C40F00",
"l. c #C11000",
"z. c #C81000",
"x. c #8F0F43",
"c. c #88154B",
"v. c #93164D",
"b. c #99164D",
"n. c #961343",
"m. c #881550",
"M. c #4F508E",
"N. c #505183",
"B. c #5A5B8F",
"V. c #494A95",
"C. c #48489C",
"Z. c #585C98",
"A. c #565DA1",
"S. c #5B5CA6",
"D. c #5C5DA9",
"F. c #5663AC",
"G. c #5F63BB",
"H. c #6165BE",
"J. c #6569C3",
"K. c #6566CE",
"L. c #6365D1",
"P. c #6768D3",
"I. c #696AD3",
"U. c #6A6CDC",
"Y. c #6B6FE5",
"T. c #6B6DE9",
"R. c #6A72E7",
"E. c #6E73EF",
"W. c #7072EE",
"Q. c #6C73F0",
/* pixels */
"  X X       X   X       X     r 8 Y I X   X       X   X   X       X ",
"X       X           X X   8 2 N.= C.H.y o   X         X       X   X ",
"    X X   X   - a       8 e   ~ U V.I.> y ,     X             X X   ",
"  X           X ;   O w w     R *.S.K.  ; u 6     X X   X X       X ",
"  X X   X X         6 p   X   E | F.K.X     y O   X X         X     ",
"              X   O 9 O   X   Q | D.K.X     ; 6   X   X   X       X ",
"X     X     X     u ;   X     R O.D.L.X   X   9 e       X   X       ",
"X     X   X   . e 2   X   o   R O.D.L.X       X ' 1   X     X   X   ",
"      X     O y w X       X   R | S.K.    ; ;   X y ,   X     X X   ",
"  X         < 4     X     q ) M.K.P.P.I . o *       y X             ",
"  X X   X   O X       X 9 Z.W.U.J.H.U.I.I <     X   2 8     X     X ",
"      X   : w   X X X % B.T.K.#.G L [ H.I.N.;   X X X p ,   X X X   ",
"X     X   1 @       & ' P.D.P J t.D l { Y.I.a             X   X X   ",
"X       < [ :.-.;.=.=.A.R.[ v B e.q.g.H F.T.Z.-.;.;.-.:.Y X X     X ",
"  X X   7 ..%.$.2.%.1.$.( J h.w.# d e.d.T _ $.%.....$.>.` o   * - X ",
"X   X   $ z x.r.l.f 3.g 5.V j.j   + d s.N l x 3.z.8.A n.C     - :   ",
"            k b.0.p.^ N 6.s.j.s       q.D n m i.n.i.v.x * X X     X ",
"    X       k b.c.a.F N N d.j.s       q.N n m c.v.c.b.n $   X X X o ",
"        $ l y.Z r.7.4.k.M B j.j   + d q.b g h b y.9.Z u.x X X X   0 ",
"        7 ..+.O.%.&...X.) K h.e.# d e.B T  . .+.o. .+.+.( X X X X   ",
"        < } ;.=.=.=.=.Z.R.{ v B e.q.g.H F.E.Z.@.=.=.-.:.Y X X X X X ",
"          < @       % ] P.D.P J t.D l { Y.I.a             X X   X X ",
"          ; w     X X ; B.E.K.#.G L [ G.I.,.; X X X X p 4   X X X   ",
"            .     X X X 2 Z.E.U.J.H.U.I./ 2 o X X   8 8 X X X X X X ",
"            ; 6     X     w W M.K.P.P.T O   X X   X y X   X X X X X ",
"            X y r X X X X X   R | S.L.    X X X o y 4   X X X X X X ",
"              X e ,   o X X   Q O.S.L.X X o o o ' 4   X X X X X X X ",
"                  y :   X o   Q | F.L.o   > - 4 r   X X   X X X   X ",
"                  O 0 O   o   Q O.D.L.o X   : 6   X X X X X X X X X ",
"                o   4 P   X   E O.D.K.o     y *   X X X X X X X X X ",
"                    O q w X   E [ S.L.  ; a 4   X X   X X X   X X X ",
"                        0 r   ! 5 C.P.: a 4   X X X X X X X X X X X ",
"                      X   8 2 N.3 C.J.y o   X X X X X X X X X X X   ",
"                      X X     r 8 Y I o   o X   X X   X X X   > 4   "
};
