/* XPM */
static char *result[] = {
/* columns rows colors chars-per-pixel */
"34 34 220 2 ",
"   c #020003",
".  c #090504",
"X  c #0B0904",
"o  c #040109",
"O  c #09050A",
"+  c #0D0B0C",
"@  c #110B08",
"#  c #160A07",
"$  c #18150C",
"%  c #030212",
"&  c #0E0B11",
"*  c #0F0D1C",
"=  c #110F12",
"-  c #141214",
";  c #16131A",
":  c #1D1B1C",
">  c #191717",
",  c #280C09",
"<  c #3F130D",
"1  c #2E0017",
"2  c #211D17",
"3  c #211D0B",
"4  c #2B250D",
"5  c #3C340E",
"6  c #37300E",
"7  c #282416",
"8  c #342E18",
"9  c #3C3411",
"0  c #342F0A",
"q  c #1F1D24",
"w  c #16172A",
"e  c #0F0E33",
"r  c #161432",
"t  c #090821",
"y  c #201E21",
"u  c #3D0031",
"i  c #1F2032",
"p  c #2B2923",
"a  c #252429",
"s  c #2B2A2C",
"d  c #262527",
"f  c #242534",
"g  c #282931",
"h  c #312F30",
"j  c #2F3035",
"k  c #343333",
"l  c #383737",
"z  c #3F3A25",
"x  c #450F0F",
"c  c #551B12",
"v  c #681C15",
"b  c #750019",
"n  c #41390A",
"m  c #473F10",
"M  c #7E2B19",
"N  c #59122B",
"B  c #541B36",
"V  c #570931",
"C  c #671C2A",
"Z  c #6E0E2D",
"A  c #403D2F",
"S  c #49283B",
"D  c #582132",
"F  c #6E242B",
"G  c #603831",
"H  c #4B430E",
"J  c #4E4412",
"K  c #544B13",
"L  c #544B13",
"P  c #5B5112",
"I  c #645917",
"U  c #61560B",
"Y  c #6E6417",
"T  c #7B6E1A",
"R  c #7E7119",
"E  c #4F4B2F",
"W  c #7A4235",
"Q  c #68583A",
"!  c #6C5734",
"~  c #6A6439",
"^  c #756E39",
"/  c #716724",
"(  c #310842",
")  c #20244D",
"_  c #383645",
"`  c #343557",
"'  c #3B3D7E",
"]  c #343363",
"[  c #671A45",
"{  c #463C43",
"}  c #412545",
"|  c #712440",
" . c #3D4351",
".. c #3A4376",
"X. c #5E5C4F",
"o. c #6A4F44",
"O. c #6E6C54",
"+. c #494A66",
"@. c #51526F",
"#. c #4E5478",
"$. c #57587B",
"%. c #4D4E7A",
"&. c #871F1D",
"*. c #95281E",
"=. c #9A2D1E",
"-. c #86301C",
";. c #AE2E16",
":. c #82302D",
">. c #A62B21",
",. c #A73223",
"<. c #BD5A1A",
"1. c #83751B",
"2. c #867816",
"3. c #855B2D",
"4. c #B44E23",
"5. c #A45C23",
"6. c #B15525",
"7. c #8B712D",
"8. c #B0692B",
"9. c #A73F40",
"0. c #B53C44",
"q. c #8E801B",
"w. c #9A8B1D",
"e. c #94851E",
"r. c #A08F19",
"t. c #A7971B",
"y. c #958825",
"u. c #8F842B",
"i. c #B5882E",
"p. c #A59622",
"a. c #AA9726",
"s. c #AC8426",
"d. c #B7A522",
"f. c #B5A635",
"g. c #CC9F1F",
"h. c #E4BC1F",
"j. c #CD9029",
"k. c #C4A928",
"l. c #D8AA29",
"z. c #CCBA25",
"x. c #C8B627",
"c. c #D4BD2C",
"v. c #E6A635",
"b. c #DAC61D",
"n. c #FDE51D",
"m. c #FFF619",
"M. c #D3C12A",
"N. c #DBC828",
"B. c #DCC537",
"V. c #DCD43C",
"C. c #E2CE2A",
"Z. c #E1CC25",
"A. c #EAD52B",
"S. c #E8D428",
"D. c #F4DD2C",
"F. c #E1CE35",
"G. c #E4D434",
"H. c #E9D437",
"J. c #F2DA36",
"K. c #FCE424",
"L. c #FFEB25",
"P. c #FBE42D",
"I. c #FFEC2D",
"U. c #F5E426",
"Y. c #FFF32B",
"T. c #FFFF2B",
"R. c #FFF526",
"E. c #EEE43A",
"W. c #F8E330",
"Q. c #FFED30",
"!. c #F6E63A",
"~. c #FFF130",
"^. c #FFFD32",
"/. c #A3984E",
"(. c #B4AC4D",
"). c #968D66",
"_. c #8E8C7B",
"`. c #A29A76",
"'. c #B2A96C",
"]. c #BCB073",
"[. c #C9BA6B",
"{. c #D2C248",
"}. c #E4D04F",
"|. c #D1C278",
" X c #F3E066",
".X c #393A89",
"XX c #353691",
"oX c #41418D",
"OX c #4C4C8D",
"+X c #5D5D85",
"@X c #484C9C",
"#X c #55569A",
"$X c #4E5492",
"%X c #62679B",
"&X c #787A96",
"*X c #7C7E87",
"=X c #4D53A6",
"-X c #5559A7",
";X c #4F53BF",
":X c #4F52AB",
">X c #5962A5",
",X c #7271BA",
"<X c #706EA6",
"1X c #4250C3",
"2X c #595BC5",
"3X c #4B4ECA",
"4X c #5F61C5",
"5X c #5F68D9",
"6X c #6466C4",
"7X c #6466D4",
"8X c #7C7BD2",
"9X c #575AEE",
"0X c #7071EE",
"qX c #8B8999",
"wX c #9F9C90",
"eX c #848A8D",
"rX c #A69E94",
"tX c #A19A87",
"yX c #B4AB9D",
"uX c #8582C4",
/* pixels */
"  o o       o     o . o .       o         o o           o .   : + y ",
"o       . o o               O p s >   .   - y   o o o         = O = ",
"    o o   o   o .   . R x.y.(.! e $.: .           o         o       ",
"o                 @ M.d.^ : #X' r 7X: l O   o   o     o o o         ",
"      o . o   > : S.R w q   .XOX_ 4X  - l +       o o         o o o ",
". o     o     o M.S.d d     oX%X+.2X    - k   .           o       o ",
"o   o     o   H Y./ f o o   oX=XX.,X=     d q   o . . o o   o   o   ",
"  o     o o   T T.Q o   .   .XrX{.,X>     X E p X         o .       ",
"    o       o C.Q.5   .     z.N.$.3X  9 R z.D.W.z.T 6     o         ",
"o   .       5 P.N.$   .   U  X%.+.&Xr.P.~.P.I.I.I.^.I.A.J   . o   - ",
"    o   O   w.~.Q.m     K n.qX:X%.}.L.W.Q.W.x.R 7 ~ d.S.^.L         ",
"  o         u.I.Q.L     Z.}.2X0X[.K.K.G.Y n       d % X 1.D.L   .   ",
"o         d p Z.Q.c.  s S.}.7X$XG.G.rX6X) o   .   $ l     4 D.X     ",
"o       - s X A.D.I.Y ' |.N._ 8.j.G oX8X`.Y P       : d     t.w.    ",
"        : 2   q.I.W.V.7X>Xx.4.M v *.3.E.m.Y.T.w.3 O $ d     6 2.% = ",
"         .>X$X%XE.P.D.tX..5.6., . &.j.u.*XeXeXV.Y._.-X@.X   $ 2.  - ",
"        } | o.Z 6.c.T.g.N >.x     , *.:.} ( Z F 5.B.! [ #   . E     ",
"        1 0.v.[ b F s.l.8.,.,       *.6.l.7.;.b V ,.v.V   o     .   ",
"H H     D | a.k.N N u C W ;.x     # =.F 7.T.D.i.B D W | .           ",
"P H   o { >X@X'.S.(.*X&XX.j.=.,   -.6.G -X}.U.Y.'.@X-X#.X           ",
"J t.o   a a q * 2.P.A.J.W.a.>.v c ,.h._.9X).L.D.U.z ; h             ",
"K S.o   > d     o O $ +X0X@XS 8.l.B d.|.;Xp c.W.~.5 % p   = >       ",
"  M.I     k q   O o   f ;XuX(.U.O.1X].I.X.o P Q.W.x.j X   X +       ",
"o 9 C.e.+ o g o     $ 9 f.W.I.J.8X9X'.n.3 o . A.I.F.=               ",
"O   4 a.W.w.^ 2 2.y.N.Q.P.P.T./.@X6XS.1.  +   e.^.x.                ",
"o O o   q.^.Q.~.I.Q.P.I.Q.b.).+X] yXK.+ o O   P ^.x.                ",
"o o o o   + I p.S.P.U.a.T   XX:Xu.R.J o o o   / ^.K   o             ",
"o o o   o o     8 ~ 8   o   XXrX{.>X  O o   d H.x.  o               ",
"o o o o o o o O   * g o O   oX&X@.3X  O   a l Y.p.  O o           d ",
"o o o o o o o o O   s q o   oX#X+.,X    ; r w.N.o o o               ",
"  o o o o o o   o   o l q   oX$X` 2X  % f 7 Q.K   O o               ",
"o o o o o o   ; _ &   o l $ #X' r 7X= ~ 1.S.I   O o                 ",
"o o o   o o   ; { &   o o : @.] e tXa.N.d.9   O o   o               ",
"o o o . o o o   o   o o o   - k g 7 o   o o O o o o o o             "
};
