/* XPM */
static char *result[] = {
/* columns rows colors chars-per-pixel */
"34 34 214 2 ",
"   c #020104",
".  c #0A0504",
"X  c #0C0904",
"o  c #030108",
"O  c #090508",
"+  c #0C090A",
"@  c #150D08",
"#  c #151203",
"$  c #191605",
"%  c #1D1B03",
"&  c #14120D",
"*  c #1D1B0A",
"=  c #000013",
"-  c #0D0B11",
";  c #0D0A1B",
":  c #080414",
">  c #100E14",
",  c #181616",
"<  c #201E04",
"1  c #270A09",
"2  c #252304",
"3  c #2D2B05",
"4  c #2D2B0A",
"5  c #252308",
"6  c #3D3B05",
"7  c #353305",
"8  c #2B2A17",
"9  c #191728",
"0  c #141437",
"q  c #201F28",
"w  c #211F3B",
"e  c #252324",
"r  c #27252C",
"t  c #34332A",
"y  c #262535",
"u  c #292839",
"i  c #302F33",
"p  c #302F39",
"a  c #383835",
"s  c #45160F",
"d  c #591A14",
"f  c #781D19",
"g  c #403F04",
"h  c #7E2619",
"j  c #4C0335",
"k  c #460032",
"l  c #571225",
"z  c #6E0025",
"x  c #6A0237",
"c  c #71003D",
"v  c #6D1029",
"b  c #6A322F",
"n  c #622134",
"m  c #692D2D",
"M  c #444303",
"N  c #4B4A03",
"B  c #514E05",
"V  c #535403",
"C  c #5C5C02",
"Z  c #585907",
"A  c #5D5E17",
"S  c #636303",
"D  c #676803",
"F  c #6B6C03",
"G  c #68690F",
"H  c #6F7003",
"J  c #737403",
"K  c #7A7B02",
"L  c #757806",
"P  c #77781E",
"I  c #494827",
"U  c #585825",
"Y  c #4A4A39",
"T  c #7C4520",
"R  c #656529",
"E  c #787329",
"W  c #666439",
"Q  c #796F38",
"!  c #391B52",
"~  c #393849",
"^  c #3A3A55",
"/  c #341F6C",
"(  c #37367A",
")  c #322967",
"_  c #7D1841",
"`  c #482658",
"'  c #473359",
"]  c #442D4B",
"[  c #4C3D7B",
"{  c #635257",
"}  c #6D6F4A",
"|  c #4A4B77",
" . c #595E79",
".. c #525373",
"X. c #505166",
"o. c #7B7C70",
"O. c #8C0017",
"+. c #982A1E",
"@. c #9C351D",
"#. c #832B1A",
"$. c #881725",
"%. c #981E20",
"&. c #881E33",
"*. c #992422",
"=. c #9B2C23",
"-. c #953A26",
";. c #A02424",
":. c #A73224",
">. c #994B18",
",. c #AB4E1D",
"<. c #AD511D",
"1. c #B1460D",
"2. c #8B761F",
"3. c #A26012",
"4. c #917C21",
"5. c #B8672D",
"6. c #C26F11",
"7. c #C67F17",
"8. c #7E8001",
"9. c #7F8010",
"0. c #7E8025",
"q. c #7D8246",
"w. c #848502",
"e. c #8A8C02",
"r. c #868804",
"t. c #929402",
"y. c #9B9D01",
"u. c #989809",
"i. c #8A8C16",
"p. c #9A9B18",
"a. c #AE8C0F",
"s. c #B89315",
"d. c #9EA002",
"f. c #9DA01A",
"g. c #A2A402",
"h. c #A6A802",
"j. c #A9AB02",
"k. c #BDAD0F",
"l. c #AEB001",
"z. c #B2B402",
"x. c #BABD01",
"c. c #B6B801",
"v. c #ADB010",
"b. c #B4B714",
"n. c #AAAD13",
"m. c #8F9231",
"M. c #9AA02E",
"N. c #A6AE2A",
"B. c #C1AC0B",
"V. c #D2AB08",
"C. c #BDC504",
"Z. c #BCD20F",
"A. c #C2C401",
"S. c #C6C901",
"D. c #CACE02",
"F. c #CED101",
"G. c #D2D601",
"H. c #D6DA00",
"J. c #DBDD01",
"K. c #D9DD0C",
"L. c #CDD217",
"P. c #E1CF01",
"I. c #E5D708",
"U. c #DCE100",
"Y. c #DCE30D",
"T. c #E1E601",
"R. c #E5EA01",
"E. c #E9ED01",
"W. c #E8ED09",
"Q. c #EDF201",
"!. c #F2F601",
"~. c #FBF500",
"^. c #F5FB00",
"/. c #FEFF00",
"(. c #FCFF0C",
"). c #EEF318",
"_. c #F4F915",
"`. c #C6CA38",
"'. c #D7DB3D",
"]. c #DFEE22",
"[. c #E5EB24",
"{. c #E2E631",
"}. c #828757",
"|. c #A3A558",
" X c #8F9175",
".X c #8E9270",
"XX c #ABAF6F",
"oX c #A4A87B",
"OX c #AEB468",
"+X c #BDC352",
"@X c #B5C16B",
"#X c #C3C64D",
"$X c #3F3F96",
"%X c #444487",
"&X c #4D5394",
"*X c #5D6597",
"=X c #6D6F88",
"-X c #4849AB",
";X c #5658B2",
":X c #7D7FB7",
">X c #4B4CC9",
",X c #5455C5",
"<X c #6B6CD7",
"1X c #4D55E0",
"2X c #5B60E5",
"3X c #6161EC",
"4X c #6667F5",
"5X c #7F82BC",
"6X c #8E9481",
"7X c #909B81",
"8X c #9A9D99",
"9X c #A5A888",
"0X c #9092A3",
"qX c #8385B1",
/* pixels */
"o o o o o o o o o o o o   e ] ;Xq.f.`.^.^.^././././.z.t.+ O O o o o ",
"o o M y.o O o o o o o   e i Z K././.^.!.^./.A.t.y.t.h.l.Q.!.Q.6 o o ",
"o * ^.e.o O o o o o o e y t./.z.S T.^.Q.r.U t o o o o o 6 4 d.F.$ o ",
"o 7 /.+ o o O o o o & y r./.F @ /.^.T.5 o o i & o + . O o o o o o o ",
"o x.S.o o o o 3 o o p 8 ^.z.* H./.).*X  @   ; p o o o o O o O o o o ",
"o F.F o X o 7 /.F y 9 r./.6 A./.H.=X,X  o % 2 I I 5 4 o o o o o o o ",
"3 ^.F o + o Z ^.U 9 # /.l.o !.^.P %X>XN e.J./././././.D.N o o o o o ",
"F /.S o + o N W.w o # /.c.+ !.{.X.| 8X!././.^.j.y.v.n.x.S o X o O o ",
"V /.S o . o x.E.* o $ /.l.o !.8X&X} /.^.Q.l.R : o = u = o . o o     ",
"h./.D o .   T./.J o * !.G.2.^.5X4X`.^.^.P o o o +   ; r   o   o r o ",
"/./.C o . : b./.d.  o K /./.+X3X*XE./.0X>XR N K R.J.C R =       + o ",
"w./.S.. + u A ^.^.7   L (.~.N.) T ~.Q }.#X)././.^.^././.K.t.        ",
"C /.!.# + , . F.^.T.& i././.B.%.@.3.$.B./.^.Q.E.Q.!.K C 8./.g.      ",
"D ^.^.w.0  .$XL.^./.p.-X+XZ.s.;.1 1 ;.V.D.OX[./.^.^.g.2   t./.J   . ",
"F /.!.T.W | | Q ~.^./.|./ n *.d .   d ,.b ( { P 4.I././.c.% y.Q..   ",
"3 J.!.^.~.-.x x 1.B.^.^.V.,.=..     O *.=.d j z O.v 5.I./.J.% Q.8.  ",
"  C./.Q.^.W.5._ j z m #.a.-.@..     . +.,.E.a.>.>.j x &.P./.K y.G.  ",
"  C /.Q.^.Q./.J.4.b ) ` ! f +.s     s @.n } (./.^.4.' ' { K./.^.E.M ",
"    S.^.E.3 V R./.[.oXOX7Xq.5.@.1 @ +.:.u.6X=XQ.^.^..X&X&XY H.!./.D ",
"    X !./.K   . g.A./.T.J.(.V.*.f #.;.s./.(. .M Q./.H.. e = F ^./.D ",
"  .   J W./.E.h.N # J 4 F./.M.! s.@.] n.^./.w.o g.^./.Z y + . Q./.V ",
"        5 p.E././.!.T.!.n.|.3XXX^. .1XOX^.(.F o 5 ^.^.E ;   . j./.g.",
"        p ~ Y 4 % 2 3 2 = ) XX/.oX4X<X#X/./.U.$ o r./.D.  . o C /./.",
"        + & - i     o o 6 C.Q./.m.-X5X/.z.C /.< o K /.D.  .   D /.r.",
"o   o         9 i o M z.^.^./.).W ( 9X/.e.X ^.%   U /.N o X o S /.C ",
"          K !.J.Y.F.^./././.C.qX%XX.[./.d.X ^.# - a E.V o X o D /.M ",
"      .   7 S F T.Q.T.U.F N   ;X%Xi././.3 r.h.- y u.^.6 o .   J D.o ",
"o . . o       o . - a > o o . >X XQ./.l.X ^.2.y o N J o   .   H H.o ",
"o     o o . . X     & a   o o o.(.^.F.o J.E.a >   o       o . U.N   ",
"  2 h.$       o   o   9 9 % t.E.!.Q.U.u.E.m.r     o .   .   $ /.3   ",
"  # T./.t.F H S D o M D f.^./.Q.Q.^./.S.t r         o   .   j.T.X   ",
"  o X 3 j.H.R././.G.!././.^././.^.L. Xi q       o       o o K 2 o . ",
"  o       o # C V U.E.U.U.U.C 0.G y ^ .   o           o o   o       ",
"    o     .     o . X . X X   = 9 e + o o   o     o     , &     o   "
};
