/* XPM */
static char *result[] = {
/* columns rows colors chars-per-pixel */
"34 34 208 2 ",
"   c #020005",
".  c #0A0205",
"X  c #030008",
"o  c #090309",
"O  c #0E090E",
"+  c #090901",
"@  c #140404",
"#  c #1C0504",
"$  c #110B0E",
"%  c #190807",
"&  c #121008",
"*  c #000512",
"=  c #010B13",
"-  c #000E1A",
";  c #090F17",
":  c #110D13",
">  c #0C1218",
",  c #141213",
"<  c #1B1417",
"1  c #1A171D",
"2  c #16151A",
"3  c #210B09",
"4  c #270A05",
"5  c #350C04",
"6  c #3E0E04",
"7  c #300E0C",
"8  c #3D120C",
"9  c #271A19",
"0  c #29221B",
"q  c #171D21",
"w  c #0A173D",
"e  c #1F2226",
"r  c #1B242A",
"t  c #12222B",
"y  c #1C2C37",
"u  c #0C2734",
"i  c #282425",
"p  c #2A292B",
"a  c #242428",
"s  c #302B24",
"d  c #222B30",
"f  c #2D353D",
"g  c #373131",
"h  c #450E01",
"j  c #490F01",
"k  c #441104",
"l  c #4C1203",
"z  c #45140B",
"x  c #531302",
"c  c #5A1301",
"v  c #591B09",
"b  c #4E1811",
"n  c #5F1D12",
"m  c #651904",
"M  c #6C1B04",
"N  c #681300",
"B  c #731C02",
"V  c #7A1E03",
"C  c #681E17",
"Z  c #750816",
"A  c #462117",
"S  c #592616",
"D  c #662618",
"F  c #69371F",
"G  c #7A270E",
"H  c #55092A",
"J  c #4F1928",
"K  c #4E1C36",
"L  c #531C31",
"P  c #631C29",
"I  c #452721",
"U  c #562D22",
"Y  c #5B3A3B",
"T  c #6C2129",
"R  c #673526",
"E  c #763826",
"W  c #6C3B34",
"Q  c #743A35",
"!  c #0E1D4B",
"~  c #131B44",
"^  c #171E47",
"/  c #192250",
"(  c #2C3546",
")  c #282E51",
"_  c #2F395D",
"`  c #333D51",
"'  c #283C67",
"]  c #48394E",
"[  c #3C415C",
"{  c #39436A",
"}  c #384266",
"|  c #2E4371",
" . c #4A4252",
".. c #63444A",
"X. c #61415E",
"o. c #764C5B",
"O. c #494D6D",
"+. c #444C6D",
"@. c #534169",
"#. c #5A4666",
"$. c #4F527E",
"%. c #684462",
"&. c #664B64",
"*. c #77506A",
"=. c #7D4B72",
"-. c #73497A",
";. c #654C77",
":. c #850912",
">. c #B31200",
",. c #862003",
"<. c #9A2602",
"1. c #992804",
"2. c #8C261C",
"3. c #87281C",
"4. c #982E19",
"5. c #81321C",
"6. c #90341B",
"7. c #AD2B02",
"8. c #AE2400",
"9. c #B32C02",
"0. c #BB2E01",
"q. c #BB2106",
"w. c #A4330E",
"e. c #BE3002",
"r. c #BA350B",
"t. c #A72F1E",
"y. c #A4311F",
"u. c #B53617",
"i. c #8D1820",
"p. c #8F2D22",
"a. c #982F23",
"s. c #8A3623",
"d. c #9A3222",
"f. c #A62E25",
"g. c #A33322",
"h. c #AA3B2E",
"j. c #A23E3B",
"k. c #CB2F00",
"l. c #D42F00",
"z. c #C33202",
"x. c #CC3301",
"c. c #C23805",
"v. c #D23301",
"b. c #D93600",
"n. c #DE3903",
"m. c #DC3E0A",
"M. c #C53E11",
"N. c #E33A01",
"B. c #EC3B02",
"V. c #E33700",
"C. c #F23C01",
"Z. c #FE3E00",
"A. c #F83000",
"S. c #9C4427",
"D. c #AB442B",
"F. c #CC4111",
"G. c #C7451A",
"H. c #E5430C",
"J. c #ED4007",
"K. c #FF4300",
"L. c #FF4901",
"P. c #FF4909",
"I. c #FF500A",
"U. c #F5481C",
"Y. c #C94120",
"T. c #D74926",
"R. c #D64F3D",
"E. c #E84B2B",
"W. c #E64D35",
"Q. c #954047",
"!. c #8F5059",
"~. c #834C59",
"^. c #995B76",
"/. c #BC576B",
"(. c #CA4E4B",
"). c #DE5142",
"_. c #D75153",
"`. c #CD5559",
"'. c #E55140",
"]. c #F05041",
"[. c #C1586A",
"{. c #3A5594",
"}. c #4C4F8A",
"|. c #555B8E",
" X c #4C5995",
".X c #4F5793",
"XX c #555B96",
"oX c #705A8C",
"OX c #4E55A8",
"+X c #535EA2",
"@X c #4D58B5",
"#X c #725DA2",
"$X c #4460AF",
"%X c #5B62B6",
"&X c #7166B5",
"*X c #4E65CD",
"=X c #5F65C6",
"-X c #6B6BD3",
";X c #686CD9",
":X c #6D6ACD",
">X c #5A6EE9",
",X c #5E72EC",
"<X c #676CE2",
"1X c #706FE1",
"2X c #7072EE",
"3X c #9B5B86",
"4X c #8D65B1",
"5X c #8169CA",
/* pixels */
"X X X X X X . X X X X X X X X X . X X X X X X X X   : q   X X X X X ",
"X X X X X X X X X X X o X X X   z.,.X o X X o X X   o O X @ X X X X ",
"      X   X   X X X X   o     q H.n.X   X X X X X X .   m 9.X X X X ",
"  @ k     .       X . k   $ r o.K.T.[ 1   @ 4 X X o X x K.8 X X .   ",
"    z.z.      X X     7.G y ; =.K.)./ 0 t V M   o X l L.B X . X X   ",
"      x.Z.B     .     7 I.m   -.Z.).~   i m.5 X X l L.B.o X X   X   ",
"  X     z.L.0.5       t r.x.X j.K.P.z   B B.*   x K.K.l   o   X   X ",
"          0.L.K.B   a r h L.# g.K.K.h   b.r.p V Z.L.9.  X           ",
"  X   . 2   e.L.K.C.D     e.8 ;.Z.W.y   m   1.L.C.Z.5   X X         ",
"      X O     z.K.K.x.    X   OXU.`.!   X # Z.Z.L.B   X             ",
"      .       5 K.Z.L.c   o $ @X/.4X) + X e.L.C.w.9   X     .       ",
"  X   5 0.9.c s 0 <.Z.K.% f &X;X>X<X-X$.c.L.9.@ X d     B <.  X     ",
"        @ B C.P.z X S P.c.%X;X.X..@.*X_.K.n       A G B.N.@         ",
"    X X     < x N     v K.(.+.5.4.4.Y D.3Xy     k Z.J.9..           ",
".           ( | ' { } { &X;.s.f.% C u. .,XXX_ { &.*.+.-             ",
"  # l 6 k k G.'.!.o.@.%.X.W d.b   @ p.s.] #.%.#.&.~.R.S 6 l @       ",
"X N.L.L.L.L.Z.Z.Z.Z.q.Z :.i.d.@     n f.H H >.A.Z.Z.Z.K.L.L.C.x.z.. ",
". h k 9.z.r.B.J.F.p.3.K P T y.#     C a.L L P a.F.C.Z.V.0.e.x.x.l   ",
"             .oX{..X.X|.%XO.a.3.  z t.W $X+X|. X XoX^.9             ",
"  X   .   . U G.M.9 , 0 =X#XF t.C 2.s...W.Q - < 2 - u *   .   X .   ",
"        . N.K.N.j       W K.*. .6.E O.:XE.Z.l   . 8.c.5           X ",
"  X   3 x.7.# r >     <.Z.T.1X;XOX%X2X=Xf b.L.c   R B.b.0.6 X       ",
"      5 6     $ p x v.L.0.q ` =X:X:X|.g   k K.K.n.S   . m x         ",
"          .     r.L.L.v.    X OXU.4X~   X   <.K.K.B.X           .   ",
"    X .   .   6 Z.Z.L.l   5 X -.Z.[.! c o   3 L.Z.K.0.    .     X   ",
"            X 0.L.Z.r.2 9.V   h.K.E.w v.7.  i A 0.L.L.0.    X       ",
"        .   B L.K.x X E K.3   l.K.P.7 N B.e i   X B N.L.e.    X     ",
"X   .     5 K.K.l     B r.    Q.Z.).! # K.E   +     X 7.L.x.        ",
"      X   0.L.l   .   v.U e   oXZ.).~   s.N.X     .     5 x.b..     ",
"    X   l K.b X .   . B   i d ~.Z.W._ s * B c   .     X     <.M   o ",
"  X   # K.x - $             * R K.S.r       , 2         .           ",
"  .   6 l       X         X   6 L.A         X o           X O       ",
"    .     .   X     X       .   z.j   X   X               o 1       ",
"          X                     . .                 X .             "
};
