/* XPM */
static char *result[] = {
/* columns rows colors chars-per-pixel */
"34 34 99 2 ",
"   c #030004",
".  c #060308",
"X  c #09050A",
"o  c #0C090E",
"O  c #0F0B10",
"+  c #130E14",
"@  c #180D16",
"#  c #190F19",
"$  c #141116",
"%  c #1B141B",
"&  c #1D1B1E",
"*  c #25181D",
"=  c #241623",
"-  c #221D25",
";  c #2E1929",
":  c #321C2D",
">  c #381F2F",
",  c #341D33",
"<  c #242225",
"1  c #27232A",
"2  c #34272D",
"3  c #3C212F",
"4  c #2C2531",
"5  c #322C36",
"6  c #3D2539",
"7  c #372F3C",
"8  c #382B3A",
"9  c #452E33",
"0  c #43263C",
"q  c #4C2C3B",
"w  c #4A3137",
"e  c #4D3439",
"r  c #55373E",
"t  c #3D3443",
"y  c #3F3A44",
"u  c #4D2B4B",
"i  c #532C42",
"p  c #5B2F44",
"a  c #463D4E",
"s  c #503C46",
"d  c #5D3F45",
"f  c #5D324D",
"g  c #573154",
"h  c #673553",
"j  c #6E395C",
"k  c #773E63",
"l  c #7D3E62",
"z  c #49454D",
"x  c #574550",
"c  c #594658",
"v  c #604146",
"b  c #69454C",
"n  c #764257",
"m  c #714C55",
"M  c #795B7C",
"N  c #69636F",
"B  c #81565D",
"V  c #85426A",
"C  c #8D466A",
"Z  c #9A4E6F",
"A  c #8C546C",
"S  c #935A6B",
"D  c #904772",
"F  c #954B74",
"G  c #9C4C7C",
"H  c #8B5672",
"J  c #9B5F74",
"K  c #95646B",
"L  c #A56D77",
"P  c #AA6D7B",
"I  c #A9717A",
"U  c #AC5583",
"Y  c #B15585",
"T  c #BC5A8C",
"R  c #B36385",
"E  c #B96C8A",
"W  c #B87384",
"Q  c #BF7C89",
"!  c #C15E8E",
"~  c #C36F8D",
"^  c #CC6394",
"/  c #CC6C92",
"(  c #D16697",
")  c #D36798",
"_  c #D76C9A",
"`  c #CE7B94",
"'  c #DD749E",
"]  c #DF77A0",
"[  c #E077A0",
"{  c #E27DA2",
"}  c #C8838F",
"|  c #D28596",
" . c #DD839E",
".. c #DB8E9C",
"X. c #E285A1",
"o. c #E986A6",
"O. c #E389A2",
"+. c #EB8AA8",
"@. c #EA91A7",
/* pixels */
"                    . o         . . .         .                     ",
"    .     .         $ y .             .                 o o         ",
"    .             . $ .   . +                                       ",
"              .                                                     ",
"            .                                                       ",
"                                                                    ",
".                                                       X < .       ",
"O       O z X           o .                             & N $       ",
"        X 1 .               X . # : > 3 : +         X X . $ .       ",
"                            = f G T ! ^ T G i +     < &             ",
"                          = D ^ { o.B P ' { ^ n *   .               ",
"  .     .           .   2 E _ O.K w + % w I O.) F $               . ",
"    .         .   .   X A +...s X         X e ` ) h                 ",
"        .             : T X.d                 m O.Y ;               ",
"                    . j _ Q % .               O P n q               ",
"            .       X V { B                     K ~ k = ; X     .   ",
"      .             X C o.v                     r ] D 6 ,           ",
"        .     .     X V o.v                     b ] V X             ",
"  .                 . l ' L .                   P _ j .           . ",
"                      0 ^  .9   .     .       9  .! >       .       ",
"      . . O           2 U ] } * o .         . m _ F % X   . $   .   ",
"        . X       .   s H Y / 0 w *     + d S Z T M - .         o O ",
"        . + .     1 7 X O 0 R /  .| P L W @.[ Y 6 4 O               ",
"  .               + %     7 x J T ( ' ' ^ ` A : .             .     ",
"                      . . a 8 g 6 i p p i c a         X O X .       ",
". $     .   .             . # u O       O 4 4 .     @ # X X         ",
"  X   .         .         $ t X                   . u t             ",
"          .         O .   $ a O                 .   O X       .     ",
".                   X .     .                           . .         ",
"      .   .       .     .         O O     .   .     .   O t 5 #     ",
"        .   .         .       .             .   .       O 5 y %     ",
".                   O                                   . O   .     ",
"                  . o       .       . X                             ",
"                            o .     . o                             "
};
