/* XPM */
static char *result[] = {
/* columns rows colors chars-per-pixel */
"34 34 96 2 ",
"   c #020004",
".  c #070408",
"X  c #09060B",
"o  c #0C0A0D",
"O  c #110A0F",
"+  c #0F0B11",
"@  c #120C13",
"#  c #1A0F1A",
"$  c #121113",
"%  c #1D1317",
"&  c #17121A",
"*  c #1B121B",
"=  c #1C1A1D",
"-  c #1F1320",
";  c #1E1A20",
":  c #241723",
">  c #221B24",
",  c #251D2C",
"<  c #2A1B2A",
"1  c #331E32",
"2  c #2A252D",
"3  c #362429",
"4  c #3F2A2F",
"5  c #2F2B31",
"6  c #3A2437",
"7  c #312D34",
"8  c #3C2239",
"9  c #342C3B",
"0  c #3B353E",
"q  c #422C31",
"w  c #52373D",
"e  c #3D3543",
"r  c #422540",
"t  c #4A2A45",
"y  c #4E2D49",
"u  c #512D4C",
"i  c #473F4D",
"p  c #583B41",
"a  c #5A3E4E",
"s  c #5B355A",
"d  c #6A3761",
"f  c #713B65",
"g  c #7B3F6B",
"h  c #4A464D",
"j  c #514B57",
"k  c #554F5A",
"l  c #604146",
"z  c #775156",
"x  c #7C545A",
"c  c #5F5A63",
"v  c #7D406E",
"b  c #63586F",
"n  c #7D5765",
"m  c #7A596B",
"M  c #82416D",
"N  c #844374",
"B  c #8A4572",
"V  c #9A4B7E",
"C  c #94636B",
"Z  c #98666D",
"A  c #A56E76",
"S  c #AB647A",
"D  c #AE737D",
"F  c #9E4D81",
"G  c #A34F87",
"H  c #A75189",
"J  c #AC538B",
"K  c #A5588A",
"L  c #A85888",
"P  c #B4568E",
"I  c #B75890",
"U  c #BE5D93",
"Y  c #B97685",
"T  c #BB7B86",
"R  c #BF7D89",
"E  c #C45C94",
"W  c #C85E94",
"Q  c #CB6699",
"!  c #D1679A",
"~  c #D26999",
"^  c #D96F9D",
"/  c #DA739F",
"(  c #DE7A9F",
")  c #DE75A0",
"_  c #DF79A1",
"`  c #E077A0",
"'  c #E17CA1",
"]  c #C4838D",
"[  c #CE8493",
"{  c #CC8A92",
"}  c #D28796",
"|  c #DA899C",
" . c #E384A2",
".. c #E98EA6",
"X. c #ED91AB",
"o. c #F093AC",
/* pixels */
"      @ .       .     .       .   .     .       +         .         ",
"    .                   .     .       .       . + .   X +   .     . ",
".   .             . 5 2           .       .         . . o           ",
"            .       i j .   .   o     .     . .         .     . .   ",
"  .   . .           + + X     . +     .         .                   ",
"              .       > 9 @           . .     .       X +     . .   ",
".   .     + +     .   ; ; X     .                     . . 2 e X     ",
"        . 9 ,           .           .   +   .     .       0 k X .   ",
". .       .         .         + * a m 1 : o               . .       ",
"    .     + c 5 .         @ r N F U Q J V d < X   + *     . .   .   ",
"          + k 9 +   .   * g I ^  ......._ Q H u + 2 9     .         ",
". .   + .     ; &   . # B ~  .Y x q q w Z } ' U s e , X           . ",
"      X .   .     X , g ! | p o           3 ] ( I u + .             ",
".   .   .           s E  .p                 % R ^ N +     .   .     ",
"                  + N ) D X               .   l X.U u     .   .   . ",
"  .   . X X . .   1 J ..w         .           @ T ^ d X .           ",
"      . @ + o     y W ..4         .         .   C o.N * +       .   ",
"  .         .     y W ..q     . .       .       C o.K -             ",
".         .       8 P ..4     . & . .           C ' N @   .   .     ",
".   .       .     < G  .z     .               @ Y Q d .           . ",
"  .         .     @ N ! [ %         .     .   z  .P 8 .       .     ",
"      .           . y I ` C o               4 | ! g +   .           ",
"  .       . $     1 s f E  .C O     .   & x | ~ J e           .   . ",
"      .   . X     : : & g  .| S A A A A { ..! J u .   .     + .     ",
"                        0 n L U / _ _ / X.[ v 3 .         . o .     ",
"                X $     7 = 6 t f V V M s 6 X       . .             ",
"          o     0 b .     $ u X X @ @ o           . 5 :             ",
"          X     $ =         o                     2 e s X           ",
"        $           $                             > 2 ; %           ",
"                              X .         $     $     > s o         ",
"                                                      o 7 c =       ",
"      .                                                 $ h $       ",
"    . o       $             o     o                                 ",
"                            o     o .       . $                     "
};
