/* XPM */
static char *result[] = {
/* columns rows colors chars-per-pixel */
"34 34 104 2 ",
"   c #020003",
".  c #060208",
"X  c #09060B",
"o  c #0B0A0C",
"O  c #0E0B10",
"+  c #120C13",
"@  c #190F14",
"#  c #170D18",
"$  c #190F19",
"%  c #141015",
"&  c #1A1016",
"*  c #1B141D",
"=  c #1E1C1F",
"-  c #1F1922",
";  c #271626",
":  c #291727",
">  c #211D24",
",  c #241E28",
"<  c #2D192A",
"1  c #331C2D",
"2  c #331D31",
"3  c #381F34",
"4  c #242225",
"5  c #262128",
"6  c #2A232D",
"7  c #39262B",
"8  c #2E2A31",
"9  c #3B2136",
"0  c #302A36",
"q  c #362E3B",
"w  c #3A333E",
"e  c #402234",
"r  c #462F34",
"t  c #43253D",
"y  c #4D2941",
"u  c #552D47",
"i  c #552E4B",
"p  c #5F314E",
"a  c #643454",
"s  c #69375A",
"d  c #673B58",
"f  c #713C60",
"g  c #7C3E63",
"h  c #4D4951",
"j  c #514D57",
"k  c #614247",
"l  c #6A484D",
"z  c #6E4850",
"x  c #734E54",
"c  c #795258",
"v  c #5A5362",
"b  c #7E4064",
"n  c #83595E",
"m  c #85426D",
"M  c #845A60",
"N  c #975B6D",
"B  c #8E4673",
"V  c #9A4B76",
"C  c #9B4C7D",
"Z  c #995476",
"A  c #8D6066",
"S  c #8F6369",
"D  c #916268",
"F  c #9A696F",
"G  c #AF667E",
"H  c #B0787F",
"J  c #A55282",
"K  c #AF5486",
"L  c #B4568C",
"P  c #BD598D",
"I  c #AC6C86",
"U  c #A56B8A",
"Y  c #B16687",
"T  c #BC7687",
"R  c #BA7E86",
"E  c #C45D8E",
"W  c #C45D92",
"Q  c #CB5F94",
"!  c #CC6094",
"~  c #C56A93",
"^  c #D36697",
"/  c #D26698",
"(  c #D66C9A",
")  c #CB7692",
"_  c #DC759E",
"`  c #D47B9E",
"'  c #DF789F",
"]  c #E27DA1",
"[  c #CD8B94",
"{  c #D08C95",
"}  c #D58598",
"|  c #DD829E",
" . c #E281A4",
".. c #E885A5",
"X. c #E38CA2",
"o. c #E888A5",
"O. c #EC8CA9",
"+. c #E69CA4",
"@. c #EF93AB",
"#. c #EF9DAB",
"$. c #F194AC",
"%. c #F49EAE",
"&. c #EB9CB0",
"*. c #F4A5AF",
/* pixels */
"                                            X                       ",
"                                            X         .             ",
"    - %         .                                                   ",
"    % o             .                   . .   .                     ",
"            .     .               . .   X .   X X     .       . .   ",
". .         .     .   .                 .     . . .       .         ",
"      .   .             . $ < e a i < @     .     . .   . O .   X O ",
"  .   .       . .     . a J P Q Q Q P V y O   . .         . .   . . ",
"    .     .   .   O 6 a P / _ ..@.@.] ( W m $ X X   .       .       ",
".   .     .       , U ! ( %.{ D M A [ %.] ( g .   .     .   .   .   ",
"  .         .     9 P ( %.M @     X @ x +.X.W y       .       .     ",
"      . .       . b ^ &.S X     .     . 7 N ( C -         .   O .   ",
".   .     . .   : K ' [ &     .   .     . R ] P 3   . . O o .     . ",
"    O X   . O   t W ..H .     .       .   n $.! a .   0 v w       . ",
". . .       .   t W  .H               .   c $.! s     + * +   .     ",
"        .       t W ..H .   .     .       M @.W u . .     . O   .   ",
"  . . . .       2 L _ [ &       . .     + [ ] P 1   .     . .   .   ",
"      O O . .   o m ^ G r X           . x *.@.J -       .   .       ",
".   .   .         9 W E } S $         l #.]  .d     . .   .       . ",
".         .   O > o a W ] %.[ k r F z T ' ! I 6               .   . ",
"  .           # q . + f ` _ ] | ) O.o.] / Z # .       . . .         ",
"      . 4 *           o t B P Q Q W ~ Y p ;   . . .           . .   ",
"        0 5         X , O O 7 i i u < #       3 ;   .   .     .     ",
"  .   . . X     .   O 6 X         .       . . : ; . X         O .   ",
"  .                   4 w .                       . o         X   . ",
"                      % -                 * % . . w 6           .   ",
"        o                               X j 4 X   4 *         . . . ",
"      X         . o 4 o                   o                   o   . ",
"      o         . o h =   o         .                             . ",
"                    o               o   X                       . . ",
"                                                                . . ",
"    o       o           .                                     > , . ",
"                        o   o         o .                     0 8   ",
"                                                                  . "
};
