/* XPM */
static char *result[] = {
/* columns rows colors chars-per-pixel */
"34 34 154 2 ",
"   c #030004",
".  c #0B0207",
"X  c #070509",
"o  c #0B0409",
"O  c #0E0B0C",
"+  c #12050C",
"@  c #140B0C",
"#  c #190D0F",
"$  c #160710",
"%  c #1B0412",
"&  c #120F14",
"*  c #190B11",
"=  c #121016",
"-  c #1B1413",
";  c #1C1917",
":  c #1D191C",
">  c #220B14",
",  c #260D18",
"<  c #2C0E1C",
"1  c #300F1C",
"2  c #2E1617",
"3  c #2C1E1A",
"4  c #35161C",
"5  c #341F1D",
"6  c #25211D",
"7  c #34201B",
"8  c #1D1E23",
"9  c #231F23",
"0  c #3C1425",
"q  c #2D2622",
"w  c #242228",
"e  c #3F2621",
"r  c #3E2B22",
"t  c #363027",
"y  c #3C352E",
"u  c #39363A",
"i  c #441A27",
"p  c #45172A",
"a  c #421D28",
"s  c #4C1B2D",
"d  c #581734",
"f  c #541C32",
"g  c #5C1C35",
"h  c #5F1F39",
"j  c #601E39",
"k  c #472424",
"l  c #4C2126",
"z  c #4B2D25",
"x  c #512727",
"c  c #53242D",
"v  c #562631",
"b  c #5D2236",
"n  c #5F2138",
"m  c #66282F",
"M  c #6B2F2F",
"N  c #622436",
"B  c #652A36",
"V  c #692D35",
"C  c #622339",
"Z  c #642A3A",
"A  c #6B2C38",
"S  c #673137",
"D  c #6D3334",
"F  c #673A34",
"G  c #6E3B36",
"H  c #663339",
"J  c #6A333A",
"K  c #6C3C3B",
"L  c #713635",
"P  c #713B36",
"I  c #70373C",
"U  c #743D3A",
"Y  c #464135",
"T  c #44403F",
"R  c #4B4438",
"E  c #5B4130",
"W  c #554B3E",
"Q  c #6F423D",
"!  c #714237",
"~  c #704C37",
"^  c #73443A",
"/  c #7A443D",
"(  c #744C3A",
")  c #7A4C3D",
"_  c #75523B",
"`  c #79553E",
"'  c #79583E",
"]  c #6D3444",
"[  c #6F3840",
"{  c #723D42",
"}  c #753B48",
"|  c #5E5545",
" . c #764346",
".. c #794544",
"X. c #7D4D43",
"o. c #744249",
"O. c #79474A",
"+. c #7D4D4B",
"@. c #7D5642",
"#. c #7C5A41",
"$. c #7F5148",
"%. c #7E4F53",
"&. c #6C614E",
"*. c #77644E",
"=. c #736955",
"-. c #815444",
";. c #825C45",
":. c #81534A",
">. c #865D4D",
",. c #885D48",
"<. c #825854",
"1. c #836146",
"2. c #85634A",
"3. c #8A654A",
"4. c #86694D",
"5. c #8D694D",
"6. c #916C4F",
"7. c #8A6151",
"8. c #8D6C53",
"9. c #8A615E",
"0. c #926E51",
"q. c #906A59",
"w. c #8D7256",
"e. c #85725B",
"r. c #967354",
"t. c #95755C",
"y. c #99765B",
"u. c #957A5C",
"i. c #9C7B5C",
"p. c #8C7B62",
"a. c #977260",
"s. c #997665",
"d. c #977965",
"f. c #9B7E63",
"g. c #8F8067",
"h. c #978064",
"j. c #9E8365",
"k. c #A28566",
"l. c #A2866C",
"z. c #A58B6C",
"x. c #AA8E6D",
"c. c #AD906E",
"v. c #A68C70",
"b. c #AC9474",
"n. c #AE9877",
"m. c #A89879",
"M. c #B19673",
"N. c #B39D7A",
"B. c #B5A17D",
"V. c #B9A37F",
"C. c #B6A380",
"Z. c #BEAC87",
"A. c #BFB285",
"S. c #C4B28D",
/* pixels */
"          X                   X                       X       X     ",
"                    X   ; 6     - - @ - - # O                     X ",
"      X               ; e.m.Y t 4.4.1.r.1.( 7                       ",
"  X                 - e.c.V.n.h.r.r.r.k.,.U x .           X         ",
"              8 = ; g.M.x.b.r.:.5.3.` #.( V L l o                   ",
"O w X     X   w T *.B.n.y.6.3.3.Q F ` ;.( L ! / 4         X         ",
"& u O         ; p.c.j.i.6.r.u.0.X.<.( ! P S K U 2 # +           X   ",
"              | S.N.0.5.r.r.k.5.4.u.#.( V C B J i x l 5 O     X     ",
"          X   | N.y.3.5.r.r.6.@._ ( ( ( D D @.X.C V A J k .         ",
"              | x.6.r.r.X. .3.#._ _ ^ ( ^ ! ( ) V B B N K -         ",
"  X       X   | c.6.r.-.B K f.1.~ ' 4._ ~ $.k.>.D D V N Z *         ",
"              | c.6.:.b N ,.w.#._ ` #.( B ) t. .C V V G Z +     X   ",
"      X   X   | k.3.{ d Q j.1.~ ` 1.' G o.v.7.m V D N B $.c X       ",
"            3 h.k.6. .g ^ z.4.~ ^ ' ' !  .y.$.! D D D C J Z $       ",
"        X   W M.x.k.2.,.>.2.#.,.( _ _ ~ ( _ ! L L D G D K Z p o     ",
"  X     X   Y B.B.z.1.;.0.' _ #.` _ _ ' _ _ ( V -.) X./ D Z h o     ",
"              &.S.k.6.5.0.6.@.~ _ ( X.3._ _ ( ! P L L U L N f $     ",
"          X   W x.5.0.r.r.0.#.` ! ` 3.4.( D D L D D D -./ b Z s o   ",
"  X     X     =.x.-.,.0.3.` ( ;.( _ ' ` D V ^ / D D L D Z n U b %   ",
"          O &.C.f.5.0.r.[ A B Z ' ` ;.-.D G $.) D D D N Z n n Z s   ",
"    X     7 m.M.0.i.r.6.J C S J 2.r.` _ L L U U N n n g N C b A f o ",
"            y w.5.i.5.( P B ( ' u.n.( ( ! D ^ X.B B B o.] g b C f o ",
"              5 ) ( _ _ S ^ ( _ f.a.L V V P D B *.2.4.d.] D B j 0 X ",
"    X       + l D ` ' ~  .t.0.8.U M L V B P K g s.B.B.%.b ^ Z 0     ",
"        X   5 ) G / U P ( q.l.t.J B D ! P V N g ..z.d.] J a < o     ",
"    X       O F ( ! ) I D ^ z.X.N N B ( P A J >. .J Z g C $     X   ",
"X         8 w r -.( ;.( @.f.q.P D D V M V b :.S.9.d C p < o         ",
"          : 8 r / G ! P j.t.L N V ^ ^ L V C O.<.} 0 , .             ",
"              < ..) V ! $.Z N C b H H B Z s > % > o                 ",
"          X   4 U / L D n B n g C g j C s o                   X     ",
"              X z S Z j n Z C C A n C s +   X                       ",
"  X             O * 0 C n K b g v * $ o                             ",
"                    X i b c > @ .                                   ",
"                        . .                                         "
};
